<svg class="main-svg" xmlns="http://www.w3.org/2000/svg" xmlns:xlink="http://www.w3.org/1999/xlink" width="700" height="500" style="" viewBox="0 0 700 500"><rect x="0" y="0" width="700" height="500" style="fill: rgb(255, 255, 255); fill-opacity: 1;"/><defs id="defs-0cb4cc"><g class="clips"><clipPath id="clip0cb4ccxyplot" class="plotclip"><rect width="540" height="320"/></clipPath><clipPath class="axesclip" id="clip0cb4ccx"><rect x="80" y="0" width="540" height="500"/></clipPath><clipPath class="axesclip" id="clip0cb4ccy"><rect x="0" y="100" width="700" height="320"/></clipPath><clipPath class="axesclip" id="clip0cb4ccxy"><rect x="80" y="100" width="540" height="320"/></clipPath></g><g class="gradients"/><g class="patterns"/></defs><g class="bglayer"/><g class="layer-below"><g class="imagelayer"/><g class="shapelayer"/></g><g class="cartesianlayer"><g class="subplot xy"><g class="layer-subplot"><g class="shapelayer"/><g class="imagelayer"/></g><g class="minor-gridlayer"><g class="x"/><g class="y"/></g><g class="gridlayer"><g class="x"/><g class="y"/></g><g class="zerolinelayer"/><path class="xlines-below"/><path class="ylines-below"/><g class="overlines-below"/><g class="xaxislayer-below"/><g class="yaxislayer-below"/><g class="overaxes-below"/><g class="plot" transform="translate(80,100)" clip-path="url(#clip0cb4ccxyplot)"><g class="scatterlayer mlayer"><g class="trace scatter trace3be478" style="stroke-miterlimit: 2; opacity: 1;"><g class="fills"/><g class="errorbars"/><g class="lines"><path class="js-line" d="M151.12,304L152.58,294.95L152.83,292.79L153.1,292.96L153.1,292.96L153.87,289.52L154.55,289.22L154.85,285.57L155.83,270.95L156.1,271.04L156.35,267.42L158.12,239.62L158.37,231.4L161.25,185.83L161.4,186.02L161.92,186.12L163.82,161.52L164.08,159.62L166.6,134.89L166.6,134.89L167.35,134.16L168.13,126.28L168.33,120.95L170.07,92.51L170.35,87.05L172.12,64.09L172.38,62.74L176.22,25.5L176.62,25.46L177.13,17.22" style="vector-effect: non-scaling-stroke; fill: none; stroke: rgb(31, 119, 180); stroke-opacity: 1; stroke-width: 2px; opacity: 1;"/></g><g class="points"/><g class="text"/></g><g class="trace scatter traceecd1b3" style="stroke-miterlimit: 2; opacity: 1;"><g class="fills"/><g class="errorbars"/><g class="lines"><path class="js-line" d="M107.38,299.43L122.32,299.42L122.57,293.87L123.13,291.9L123.13,291.9L123.77,291.9L125.05,292.16L125.2,294.55L125.8,294.13L126,292.31L127.73,285.66L127.73,285.66L128.32,277.64L129.72,302.95L129.72,302.95L133.9,304L135.12,302.94L135.12,302.94L137.37,302.15L138.08,294.56L138.08,294.56L140.27,285.11L140.85,283.78L141.1,278.36L143.05,275.75L143.25,271.68L146.03,244.95L146.3,247.04L147.6,228.09L147.6,228.09L148.98,226.63L149.78,207.71L149.78,207.71L150.33,203.33L150.58,195.82L150.58,195.82L152.53,179.69L152.6,178.39L152.6,178.39L153.85,176.78L155.28,161.5L155.5,161.37L156.35,159.71L156.55,156.56L159.13,134.82L159.47,134.86L160.57,134.86L161.85,130.67L162,124.34L163.28,99.06L163.28,99.06L163.82,98.09L166.58,58.53L166.58,58.53L167.35,55.25L167.58,51.27" style="vector-effect: non-scaling-stroke; fill: none; stroke: rgb(44, 160, 44); stroke-opacity: 1; stroke-width: 2px; opacity: 1;"/></g><g class="points"/><g class="text"/></g><g class="trace scatter trace340c8f" style="stroke-miterlimit: 2; opacity: 1;"><g class="fills"/><g class="errorbars"/><g class="lines"><path class="js-line" d="M-34.37,301.54L-33.53,304L-33.53,304L-32.53,304L-29.53,304L-29.53,304L-28.92,302.71L-28.4,303.42L-28.08,300.43L-27.55,297.8L-27.35,294.33L-24.6,283.8L-24.4,283.91L-24.2,286.11L-23.63,283.35L-23.35,278.99L-19.53,211.61L-19.3,206.26L-18.57,195.32L-18.47,195.34L-17.6,191.35L-15.35,149.46L-15.12,145.53L-12.58,116.57L-12.3,108.93L-9.53,60.47L-9.3,60.26L-7.82,33.81L-7.57,29.09L-7.05,19.33" style="vector-effect: non-scaling-stroke; fill: none; stroke: rgb(214, 39, 40); stroke-opacity: 1; stroke-width: 2px; opacity: 1;"/></g><g class="points"/><g class="text"/></g><g class="trace scatter trace728488" style="stroke-miterlimit: 2; opacity: 1;"><g class="fills"/><g class="errorbars"/><g class="lines"><path class="js-line" d="M-23.9,301.67L-22.8,303.54L-22.8,303.54L-21.78,303.33L-19.75,303.23L-19.75,303.23L-18.73,303.13L-14.88,302.83L-14.62,299.68L-14.33,298.71L-14.08,293.41L-12.57,285.89L-12.28,280.1L-11.8,279.73L-11.58,274.08L-10.03,268.75L-9.82,262.58L-9.08,249.86L-8.68,250.48L-8.33,249.43L-5.08,185.43L-5.08,185.43L-4.75,185.41L-2.48,161.3L-2.48,161.3L-1.57,161.62L-0.43,144.88L-0.43,144.88L0.18,142.99L1.18,133.73L1.47,132.66L6.47,60.5L6.67,60.68L7.2,58.37L7.45,52.5L9.18,25.46L9.33,25.65L9.72,25.41L10.17,24.55L10.5,18.09" style="vector-effect: non-scaling-stroke; fill: none; stroke: rgb(148, 103, 189); stroke-opacity: 1; stroke-width: 2px; opacity: 1;"/></g><g class="points"/><g class="text"/></g><g class="trace scatter tracedc256e" style="stroke-miterlimit: 2; opacity: 1;"><g class="fills"/><g class="errorbars"/><g class="lines"><path class="js-line" d="M-9.28,301.4L-8.75,304L-8.75,304L-7.38,304L-0.38,304L-0.38,304L0.18,301.8L0.93,301.96L1.15,298.45L1.47,299.32L1.7,297.63L2.1,292.49L2.32,292.55L2.95,292.56L8.7,194.87L9.12,195.1L9.63,187.33L9.83,187.45L10.48,183.01L11.98,164.66L12.18,158.2L13.95,134.1L14.2,135.79L14.38,135.55L14.72,132.67L15.43,119.23L15.7,112.21L17.48,78.3L17.72,77.98L21.23,17.71" style="vector-effect: non-scaling-stroke; fill: none; stroke: rgb(140, 86, 75); stroke-opacity: 1; stroke-width: 2px; opacity: 1;"/></g><g class="points"/><g class="text"/></g><g class="trace scatter trace21a4c7" style="stroke-miterlimit: 2; opacity: 1;"><g class="fills"/><g class="errorbars"/><g class="lines"><path class="js-line" d="M10.73,301.08L11.75,304L11.75,304L12.77,304L15.8,304L15.8,304L16.33,302.62L18.85,304L18.85,304L19.55,302.27L19.87,303.72L19.87,303.72L20.43,300.85L21.73,291.42L21.93,289.63L23.97,270.5L24.23,270.5L25.48,258L25.73,258.16L26.2,257.55L26.48,250.92L27.98,235.64L28.22,228.82L30.25,208.32L30.48,207.68L30.73,207.36L30.97,199.32L32.7,178.1L32.98,177.67L34.42,161.35L34.42,161.35L35.48,161.45L37.83,136.71L38.23,136.93L38.55,134.48L38.55,134.48L39.23,134.4L40.2,126.16L40.5,123.12L42.47,98.49L42.75,97.37L42.9,97.45L43.23,96.07L46.2,57.98L46.47,57.76L48.23,35.64L48.48,30.12L49.25,19.71" style="vector-effect: non-scaling-stroke; fill: none; stroke: rgb(227, 119, 194); stroke-opacity: 1; stroke-width: 2px; opacity: 1;"/></g><g class="points"/><g class="text"/></g><g class="trace scatter traceaced4b" style="stroke-miterlimit: 2; opacity: 1;"><g class="fills"/><g class="errorbars"/><g class="lines"><path class="js-line" d="M22.98,301.71L23.2,302.19L23.43,301.84L24.97,304L28.03,304L28.43,301.84L29.05,304L29.05,304L30.07,304L32.68,304L32.68,304L33.45,301.84L33.68,304L33.98,301.69L34.25,302.93L34.38,302.97L35.45,292.12L35.52,292.28L36.25,292.1L36.97,285.96L36.97,285.96L37.52,285.42L38.2,285.24L38.28,283.63L38.67,284.85L38.67,284.85L39.28,282.92L39.83,284.77L40.23,274.93L40.95,271.25L40.95,271.25L41.5,271.11L42.98,252.47L43.25,249.71L43.33,250.32L44.02,249.82L44.2,248.58L44.95,244.52L45.23,240.38L46.98,215.78L47.17,213.92L47.47,213.52L47.7,210.05L48.27,204.09L48.47,198.57L50.75,178.18L51.03,178.24L51.52,178.23L53.7,141.89L53.97,135.87L54.97,132.34L55.2,128.17L57.97,90.52L58.13,90.64L58.75,89.85L59.02,83.29L60.77,60.97L61.02,59.62L63.25,24.41L63.52,20.15" style="vector-effect: non-scaling-stroke; fill: none; stroke: rgb(127, 127, 127); stroke-opacity: 1; stroke-width: 2px; opacity: 1;"/></g><g class="points"/><g class="text"/></g><g class="trace scatter trace6ce18f" style="stroke-miterlimit: 2; opacity: 1;"><g class="fills"/><g class="errorbars"/><g class="lines"><path class="js-line" d="M39.72,300.93L40.6,304L40.6,304L41.6,304L44.6,304L44.6,304L45.07,302.94L45.43,302.94L45.6,304L47.83,283.6L48.22,286.51L50,263.82L50.23,263.31L50.48,263.19L50.75,261.22L52.48,253.51L52.72,249.41L53.45,249.65L53.72,248.21L57.98,175.6L58.27,168.7L58.48,168.53L58.75,162.98L59.47,154.5L59.73,146.75L60.25,143.27L60.52,135.7L61.73,131.54L62.03,123.92L63.78,97.37L64.02,97.35L64.47,90.51L64.82,90.8L65.47,90.59L66.02,84.12L66.3,80.44L69.78,26.2L70.03,26.55L70.22,26.52L70.53,21.72" style="vector-effect: non-scaling-stroke; fill: none; stroke: rgb(188, 189, 34); stroke-opacity: 1; stroke-width: 2px; opacity: 1;"/></g><g class="points"/><g class="text"/></g><g class="trace scatter tracecd0736" style="stroke-miterlimit: 2; opacity: 1;"><g class="fills"/><g class="errorbars"/><g class="lines"><path class="js-line" d="M55.15,301.68L55.7,304L55.7,304L60.22,304L60.95,304L61.28,301.53L61.52,301.04L61.73,297.4L62.28,291.9L62.28,291.9L63.03,290.34L64.22,286.25L64.52,281.08L65.7,267.09L66.02,259.9L67.53,251.21L67.53,251.21L68.18,251.44L69.78,229.64L70,229.57L73.02,178.53L73.27,178.52L73.98,178.51L74.18,175.87L76.78,126L76.97,124.43L77.28,123.21L77.52,117.98L79.37,97.81L79.37,97.81L80.07,96.94L81.48,78.91L81.77,78.7L84.67,28.13L85.02,27.48L85.3,22.18" style="vector-effect: non-scaling-stroke; fill: none; stroke: rgb(23, 190, 207); stroke-opacity: 1; stroke-width: 2px; opacity: 1;"/></g><g class="points"/><g class="text"/></g><g class="trace scatter trace6dc6c4" style="stroke-miterlimit: 2; opacity: 1;"><g class="fills"/><g class="errorbars"/><g class="lines"><path class="js-line" d="M78.77,301.62L79.33,304L79.33,304L80.05,301.18L80.93,292.31L80.93,292.31L81.78,290.19L83.28,283.03L83.53,279.45L84.5,272.13L84.7,272.05L85.45,271.42L85.8,266.27L87.72,230.75L88.07,227.48L89.25,214.19L89.55,206.86L89.83,207.17L90.32,204.26L91.05,194.89L91.25,195.43L91.57,195L92.03,186.04L92.28,178.92L92.75,177.58L93.02,172.59L94.53,156.33L94.77,156.26L96.2,145.16L96.2,145.16L96.7,145.16L98.05,132.49L98.22,132.66L98.5,131.52L98.8,125.32L99.3,123.25L99.57,118.1L101.32,90.85L101.32,90.85L101.7,90.89L102.57,90.6L102.82,88.62L103.28,82.98L103.58,78.44L104.3,70.34L104.5,67.74L107.8,40.13L107.8,40.13L108.27,37.78L109.48,26.68L109.77,26.68L110.03,26.03L110.28,22.05" style="vector-effect: non-scaling-stroke; fill: none; stroke: rgb(31, 119, 180); stroke-opacity: 1; stroke-width: 2px; opacity: 1;"/></g><g class="points"/><g class="text"/></g><g class="trace scatter tracea13b92" style="stroke-miterlimit: 2; opacity: 1;"><g class="fills"/><g class="errorbars"/><g class="lines"><path class="js-line" d="M92.05,301.81L92.55,304L92.8,301.1L93.53,300.11L93.75,295.59L94.02,292.14L94.18,292.22L95.32,290.48L97.23,278.09L97.5,278.01L98.55,259.06L98.73,259.37L99.3,258.29L100.48,246.28L100.48,246.28L101.07,243.52L103.28,195.04L103.45,195.21L103.78,192.6L104.05,184.12L105.02,172.95L105.33,175.67L105.95,161.61L106.13,161.65L106.8,161.54L108.07,145.9L108.2,145.95L108.52,144.47L109.75,132.77L110.03,132.73L111,124.54L111,124.54L112.05,123.1L113.78,97.34L114,97.29L114.6,97.13L114.82,93.11L115.77,75.68L116.07,67.64L118.07,44.39L118.32,38.24L119.53,17.71" style="vector-effect: non-scaling-stroke; fill: none; stroke: rgb(255, 127, 14); stroke-opacity: 1; stroke-width: 2px; opacity: 1;"/></g><g class="points"/><g class="text"/></g><g class="trace scatter tracee80430" style="stroke-miterlimit: 2; opacity: 1;"><g class="fills"/><g class="errorbars"/><g class="lines"><path class="js-line" d="M100.33,304L101.27,304L101.27,304L102.28,304L105.77,304L106.03,300.77L106.42,300.46L106.42,300.46L107.02,298.06L107.57,292.24L107.57,292.24L108.28,292.14L108.55,291.62L108.82,285.92L110.25,263.48L110.57,262.73L111,262.49L111.43,260.22L111.6,262.42L111.6,262.42L112.33,256.76L113.27,249.97L113.53,245.8L114.07,238.49L114.3,230.95L115.78,210.92L116.03,204.16L117.03,194.97L117.33,193.19L119.08,163.83L119.3,161.72L119.77,161.62L120.05,157.68L120.82,151.01L121.07,146.06L121.83,145.13L122.05,139.62L123.02,132.76L123.32,132.05L124.28,109.78L124.55,105.32L124.83,104.76L125.08,100.03L125.5,97.4L125.5,97.4L126.07,97.22L126.57,95.41L126.8,90.78L129.07,52.86L129.28,48.21L129.97,45.39L130.27,39.74L131.28,25.4L131.55,25.72L131.83,21.85" style="vector-effect: non-scaling-stroke; fill: none; stroke: rgb(44, 160, 44); stroke-opacity: 1; stroke-width: 2px; opacity: 1;"/></g><g class="points"/><g class="text"/></g><g class="trace scatter trace05fbed" style="stroke-miterlimit: 2; opacity: 1;"><g class="fills"/><g class="errorbars"/><g class="lines"><path class="js-line" d="M114.8,304L120.92,304L121.32,301.38L121.55,300.91L121.82,297.87L122.22,292.17L122.38,292.2L123.03,291.61L123.53,288.76L123.53,288.76L124.28,288.21L126.38,271.3L126.82,271.14L128.08,259.18L128.27,259.15L130.08,229.52L130.3,224.05L132.53,192.67L132.85,188.28L134.05,174.18L134.33,164.03L134.83,161.46L134.83,161.46L135.82,158.73L137.98,134.94L138.2,134.97L139.1,132.33L139.2,132.62L139.57,127.52L141.03,104.91L141.27,103.72L142.67,91.15L143.02,91.13L143.85,79.07L144.03,74.08L145.07,66.37L145.35,63.35L147.58,39.11L147.83,33.15L148.32,22.44" style="vector-effect: non-scaling-stroke; fill: none; stroke: rgb(214, 39, 40); stroke-opacity: 1; stroke-width: 2px; opacity: 1;"/></g><g class="points"/><g class="text"/></g><g class="trace scatter trace6e6b70" style="stroke-miterlimit: 2; opacity: 1;"><g class="fills"/><g class="errorbars"/><g class="lines"><path class="js-line" d="M168.3,302.18L168.85,304L169.07,301.79L170.08,292.3L170.38,292.49L171.08,291.67L172.58,285.24L172.82,285.24L173.07,285.24L173.3,281.73L174.62,271.34L174.85,271.14L178.02,219.42L178.02,219.42L178.63,215.53L179.87,194.48L180.1,194.56L180.35,192.87L180.52,192.34L180.83,183.63L182.88,154.71L183.1,152.49L183.6,145.22L183.9,145.4L184.87,140.87L185.88,132.51L186.03,132.52L187.37,109.64L187.65,102.25L188.88,90.44L188.88,90.44L190.13,88.79L190.27,88.6L190.65,83.94L192.08,66.47L192.08,66.47L192.52,66.07L192.87,66.07L193.05,64.48L194.13,57.1L194.27,57.35L194.63,56.24L196.63,25.49L197.07,25.56L197.62,24.62L198.65,19.4" style="vector-effect: non-scaling-stroke; fill: none; stroke: rgb(148, 103, 189); stroke-opacity: 1; stroke-width: 2px; opacity: 1;"/></g><g class="points"/><g class="text"/></g><g class="trace scatter traceff6b41" style="stroke-miterlimit: 2; opacity: 1;"><g class="fills"/><g class="errorbars"/><g class="lines"><path class="js-line" d="M168.62,299.43L171.07,299.43L171.33,242.88L172.12,242.88L172.35,303.42L173.1,299.43L173.35,299.43L174.62,299.43L174.85,297.45L175.82,291.9L176.08,291.9L176.82,291.9L177.13,293.09L178.35,294.34L178.62,293.77L178.87,293.21L180.05,289.36L180.35,286.19L181.02,277.75L181.5,277.93L181.85,279.09L182.1,274.65L182.38,304L182.87,301.47L183.17,304L185.63,303.5L185.9,302.02L187.5,292.72L187.8,292.54L188.33,292.45L188.62,286.71L190.3,270.85L190.3,270.85L190.87,270.23L192.02,258.99L192.28,258.49L192.9,258.88L193.12,257.88L194.15,244.48L194.23,244.39L194.62,242.37L194.9,232.8L195.92,219.4L196.13,219.47L196.4,219.43L197.1,213.69L197.4,205.21L199.15,178.93L199.38,178.6L199.92,177.46L200.12,172.19L201.77,145.3L202.1,138.18L205.58,97.65L205.58,97.65L206.13,97.68L206.88,91.13L207.18,91.23L207.85,89.8L210.13,69.52L210.38,66.07L211.38,66.27L211.38,66.27L212.13,65.35L215.62,37.37L215.92,29.7L216.42,25.36L216.42,25.36L218.18,25.53L218.63,25.36L218.92,22.01L219.18,19.25" style="vector-effect: non-scaling-stroke; fill: none; stroke: rgb(140, 86, 75); stroke-opacity: 1; stroke-width: 2px; opacity: 1;"/></g><g class="points"/><g class="text"/></g><g class="trace scatter traceb2b4da" style="stroke-miterlimit: 2; opacity: 1;"><g class="fills"/><g class="errorbars"/><g class="lines"><path class="js-line" d="M204.4,304L204.8,304L204.8,304L206.2,304L211.5,303.93L211.83,300.19L212.38,297.94L212.6,293.63L212.78,291.44L213.15,291.76L213.78,292.9L215.18,274.88L215.18,274.88L220.88,242.43L221.45,226.52L221.83,226.72L222.2,226.74L223.9,215.88L224.15,215.65L224.6,215.02L224.88,213.76L226.15,207.58L226.4,201.19L226.5,207.24L226.93,193.07L227.17,186.57L228.97,151.17L229.42,145.29L230.13,144.5L230.4,138.33L230.93,131.9L231.38,131.96L232.1,131.8L232.4,131.6L232.67,126.7L234.65,97.97L234.9,93.41L236.13,88.23L236.42,84.11L237.93,68.75L238.17,68.27L239,66.37L239.37,66.37L240.83,59.36L240.98,59.39L241.37,59.36L242.13,57.78L242.42,52.65L242.68,52.39L242.9,53.03L243.12,51.45L245.65,26.16L245.9,22.74L246.17,22.7L246.37,19.19" style="vector-effect: non-scaling-stroke; fill: none; stroke: rgb(227, 119, 194); stroke-opacity: 1; stroke-width: 2px; opacity: 1;"/></g><g class="points"/><g class="text"/></g><g class="trace scatter tracecfaeda" style="stroke-miterlimit: 2; opacity: 1;"><g class="fills"/><g class="errorbars"/><g class="lines"><path class="js-line" d="M204.98,299.43L210.15,299.43L210.42,292.38L211.27,291.9L211.65,291.9L213.62,291.9L213.83,293.38L214.1,293.29L214.1,293.29L215.13,294.72L217.37,290.4L217.62,286.31L218.13,277.71L218.42,278.38L218.57,301.53L218.9,301.11L219.15,304L226.3,304L226.6,302.97L227.15,298.75L227.43,294.13L227.77,292.86L227.77,292.86L228.38,292.6L229.35,286.18L229.35,286.18L229.93,286L231.85,263L232.15,261.74L233.9,226.68L234.05,226.73L234.42,224.78L234.67,219.4L235.43,219.17L235.62,217.61L235.9,216.73L236.15,211.28L237.95,185.96L238.22,185.74L238.68,184.7L238.9,179.33L239.85,173.84L240.13,168.31L240.42,167.86L240.63,163.76L244.6,134.97L244.6,134.97L245.38,133.76L245.8,132.58L245.8,132.58L246.63,132.6L247.1,130.02L247.42,126.99L250.48,98.72L250.48,98.72L251.45,94.6L253.13,78.26L253.45,72.56L254.6,67.28L254.77,67.3L256.65,56.43L256.92,53.16L257.23,53.11L257.58,51.86L259.42,33.6L259.7,32.76L260.43,22.36L260.98,21.6" style="vector-effect: non-scaling-stroke; fill: none; stroke: rgb(127, 127, 127); stroke-opacity: 1; stroke-width: 2px; opacity: 1;"/></g><g class="points"/><g class="text"/></g><g class="trace scatter traced09d01" style="stroke-miterlimit: 2; opacity: 1;"><g class="fills"/><g class="errorbars"/><g class="lines"><path class="js-line" d="M478.08,299.43L494.65,299.43L494.95,292.7L495.83,291.9L495.83,291.9L496.67,291.9L498.37,291.9L498.72,293.02L500.17,294.7L500.43,294.01L500.7,294L501.93,292.14L501.93,292.14L502.63,291.94L504.18,277.54L504.42,277.58L504.68,278.47L504.92,278.28L505.22,301.53L505.43,301.02L505.7,304L506.48,304L506.7,301.53L507.2,297.76L507.47,293.74L507.7,293.39L507.7,293.39L508.75,289.3L509.7,284.88L509.95,281.68L511.43,272.01L511.55,272.03L512.15,271.94L512.48,264.77L513.62,259.7L513.78,260.27L516.98,223.04L517.22,221.81L517.48,221.77L517.73,218.76L518.45,210.28L518.68,207.75L519.12,207.77L519.47,202.85L520.37,194.98L520.75,194.46L522.17,181.8L522.48,178.14L523.22,166.77L523.47,160.16L524.92,146.57L525.22,146.53L526.43,135.08L526.65,134.96L527.75,134.94L527.98,132.86L528.93,132.36L529.2,126.69L530.22,112.45L530.5,107L531.73,104.1L531.97,103.97L533.52,91.52L533.77,88.82L534.2,88.49L534.47,85.09L536.17,66.42L536.42,66.48L537.48,66.33L537.75,64.6L538.8,59.51L538.8,59.51L539.73,59.41L539.98,59.11L540.23,56.7L541.15,52.94L541.32,52.94L542.75,43.3L542.97,42.99L545.95,20.26" style="vector-effect: non-scaling-stroke; fill: none; stroke: rgb(188, 189, 34); stroke-opacity: 1; stroke-width: 2px; opacity: 1;"/></g><g class="points"/><g class="text"/></g><g class="trace scatter tracee43c53" style="stroke-miterlimit: 2; opacity: 1;"><g class="fills"/><g class="errorbars"/><g class="lines"><path class="js-line" d="M524.42,300.92L524.83,304L525.37,303.24L526.35,304L528.97,304L528.97,304L530.37,303.24L531.97,304L531.97,304L533.97,304L536.43,303.42L536.72,303.07L538.48,292.17L538.55,293.2L539.03,292.12L540.25,287.08L540.53,285.24L542.02,272.43L542.13,272.57L542.42,272.25L542.68,272.14L542.95,270.49L544.77,250.18L545.02,250.26L545.25,249.98L545.45,247.76L546.22,247.73L546.22,247.73L547.27,245.96L549.75,219.4L550.02,219.56L550.77,217.37L551,213.38L552.75,195.9L552.98,194.8L553.43,194.86L553.8,193.37L554.23,188.53L554.48,186.13L555.23,186.17L555.52,182.2L557.38,168.25L557.7,168.21L559.32,161.35L559.7,161.04L560.53,156.52L560.92,156.56L561.32,156.45L561.73,156.56L562.03,152.75L562.78,144.68L563.2,145.07L563.48,144.68L565.23,132.67L565.23,132.67L565.8,131.23L568.03,103.88L568.25,103.62L568.53,103.3L568.77,100.41L570.53,90.3L570.73,90.61L571.07,90.62L571.88,88.59L572.25,87.12L574.27,66.17L574.72,66.6L575.32,66.21L581.48,33.31L581.82,27.56L583.82,21.15" style="vector-effect: non-scaling-stroke; fill: none; stroke: rgb(23, 190, 207); stroke-opacity: 1; stroke-width: 2px; opacity: 1;"/></g><g class="points"/><g class="text"/></g><g class="trace scatter trace42067f" style="stroke-miterlimit: 2; opacity: 1;"><g class="fills"/><g class="errorbars"/><g class="lines"><path class="js-line" d="M515.38,301.26L515.72,304L515.72,304L518.25,304L519.58,292.62L519.58,292.62L520.5,289.95L520.67,289.31L521.22,290.05L521.5,289.65L523.22,273.51L523.48,272.23L523.88,271.49L524.23,270.78L524.73,263.5L525.27,263.62L525.48,262.06L527.23,248.04L527.4,247.97L528.22,243.82L528.43,237.7L529.7,217.98L529.88,217.31L530.97,207.52L531.23,207.22L531.95,195.32L531.95,195.32L532.43,195.31L532.75,194.87L532.93,193.03L537.23,145.17L537.28,145.2L537.95,145L538.47,144.64L538.72,139.89L539.9,131.89L539.9,131.89L540.47,126.95L544.02,98.46L544.28,94.55L544.63,91.06L544.83,91.24L545.93,89.75L546.47,84.73L546.75,79.41L547.2,78.22L547.5,72.12L548,68.16L548,68.16L548.75,66.44L549.02,66.2L549.02,66.2L550,66.01L551.73,54.8L552.03,54.55L553.45,49.8L553.77,48.44L556.23,19" style="vector-effect: non-scaling-stroke; fill: none; stroke: rgb(31, 119, 180); stroke-opacity: 1; stroke-width: 2px; opacity: 1;"/></g><g class="points"/><g class="text"/></g><g class="trace scatter trace9fb2ec" style="stroke-miterlimit: 2; opacity: 1;"><g class="fills"/><g class="errorbars"/><g class="lines"><path class="js-line" d="M223.65,299.43L225.8,299.43L226.17,296.08L226.97,291.9L227.32,291.9L230.65,291.9L230.93,292.68L231.67,292.97L231.87,294.31L232.42,293.79L232.5,293.7L233.87,289.15L233.87,289.15L234.57,289.6L236.42,278.64L236.67,278.38L236.93,278.47L236.93,278.47L237.63,301.53L237.9,301.53L238.08,304L240.68,290.43L240.83,290.36L241,290.09L241.33,287.65L242.67,272.27L242.67,272.27L243.48,272.26L245.08,272.79L245.08,272.79L246,272.3L246.4,272.31L246.4,272.31L246.92,271.2L248.42,253.96L248.7,251.77L251.1,217.6L251.1,217.6L251.7,214.01L251.82,213.73L252.22,209.66L252.92,207.33L252.92,207.33L253.3,207.31L253.68,206.22L253.95,200.22L255.67,178.41L255.77,178.23L256.4,178.03L256.65,175.45L258.07,156.81L258.33,156.6L258.7,155.11L258.93,149.05L259.92,144.88L260.22,144.88L260.43,143.88L260.67,137.68L261.17,134.67L261.17,134.67L261.95,133.64L262.67,129.29L262.95,125L263.2,124.69L263.47,119.88L264.68,109.02L264.92,105.68L265.38,105.31L265.63,104.28L266.67,98.47L266.67,98.47L267.17,98.47L268.68,88.33L268.97,88.39L269.18,87.53L269.45,81.27L270.72,66.36L270.95,66.36L274.22,46.52L274.43,42.36L276.45,25.61L276.45,25.61L277.18,25.53" style="vector-effect: non-scaling-stroke; fill: none; stroke: rgb(255, 127, 14); stroke-opacity: 1; stroke-width: 2px; opacity: 1;"/></g><g class="points"/><g class="text"/></g><g class="trace scatter tracebd9ef6" style="stroke-miterlimit: 2; opacity: 1;"><g class="fills"/><g class="errorbars"/><g class="lines"><path class="js-line" d="M260.38,301.55L260.8,304L260.8,304L262.23,304L271.7,304L271.93,301.07L272.18,301.07L272.45,299.9L273.05,292.29L273.05,292.29L273.7,291.73L277.95,264.42L278.17,259.63L278.42,259.06L278.62,259.3L278.93,253.44L279.7,247.05L279.82,247.14L280.42,246.66L282.33,217.38L282.33,217.38L282.8,217.4L283.13,217.37L283.48,214.61L284.7,196.5L284.95,195.35L285.13,195.38L285.45,188.21L286.7,167.67L286.98,164.85L288.45,154.05L288.7,153.55L289.25,145.52L289.33,150.76L289.72,140.85L290.73,134.73L290.73,134.73L291.38,134.8L291.93,133.69L292.23,126.66L292.97,117.55L293.23,109.4L295.17,78.97L295.3,79.08L295.75,77.87L297.5,61.71L297.58,61.69L300.43,45.55L300.73,41.07L301.95,21.07" style="vector-effect: non-scaling-stroke; fill: none; stroke: rgb(44, 160, 44); stroke-opacity: 1; stroke-width: 2px; opacity: 1;"/></g><g class="points"/><g class="text"/></g><g class="trace scatter tracef53fdd" style="stroke-miterlimit: 2; opacity: 1;"><g class="fills"/><g class="errorbars"/><g class="lines"><path class="js-line" d="M262.9,301.32L263.85,304L264.12,301.86L264.65,296.29L264.93,292.31L265.65,292L265.88,290.06L266.63,289.84L266.9,286.53L269,271.58L269,271.58L269.7,270.23L271.9,239.79L272.18,230.86L273.98,219.77L274.47,219.64L277.97,192.63L278.17,192.58L280.6,157.11L280.95,156.43L281.2,155.97L281.45,150.68L282.4,145.04L282.57,145.06L283.17,142.65L283.48,135.56L284.92,123.52L285.18,118.38L286.7,98.71L286.98,98.4L288.2,93.72L288.47,89.07L288.95,87.44L289.2,82.99L291.07,65.95L291.38,65.96L291.9,64.71L292.15,61.86L293.98,55.35L294.2,54.17L296.67,26.43L296.95,26.53L297.48,26.54L297.67,24.45" style="vector-effect: non-scaling-stroke; fill: none; stroke: rgb(214, 39, 40); stroke-opacity: 1; stroke-width: 2px; opacity: 1;"/></g><g class="points"/><g class="text"/></g><g class="trace scatter trace318bc6" style="stroke-miterlimit: 2; opacity: 1;"><g class="fills"/><g class="errorbars"/><g class="lines"><path class="js-line" d="M292.98,304L294.85,300.89L295.2,300.51L295.8,292.73L295.8,292.73L296.48,292.22L296.73,289.66L296.88,289.68L297.65,289.68L298.5,286.19L298.93,284.83L299.97,272.62L299.97,272.62L300.47,272.55L300.7,272.44L300.98,271.38L301.45,271.12L301.73,268.22L302.43,258.94L302.43,258.94L303,257.62L304.95,237.78L305.22,229.71L306.72,222.83L306.97,220.9L307.42,220.89L307.68,219.19L309.27,208.03L309.48,203.3L310.18,194.49L310.25,194.51L310.62,194.43L311.38,185.8L311.38,185.8L311.9,185.85L313.27,168.38L313.57,169.08L315.87,168.21L315.87,168.21L317.15,168.21L318.12,161.76L318.12,161.76L318.63,161.72L319.95,154.43L320.22,148.88L322.45,134.33L322.45,134.33L323.48,134.57L323.98,131.83L324.13,132.7L324.93,132.38L325.25,130.98L325.48,126.4L326.47,123.59L326.72,123.05L328.25,103.89L328.52,103.69L332.5,66.28L332.65,66.45L333.32,66.38L335.02,59.7L335.02,59.7L336.25,59.21L337.45,57.64L337.68,54.07L339.73,44.07L340.02,40.18L340.45,39.79L340.75,34.41L341.73,25.27L342.02,20.03" style="vector-effect: non-scaling-stroke; fill: none; stroke: rgb(148, 103, 189); stroke-opacity: 1; stroke-width: 2px; opacity: 1;"/></g><g class="points"/><g class="text"/></g><g class="trace scatter trace01506a" style="stroke-miterlimit: 2; opacity: 1;"><g class="fills"/><g class="errorbars"/><g class="lines"><path class="js-line" d="M307.22,301.53L307.7,304L307.7,304L312.7,304L314.98,300.12L315.18,295.59L315.65,292.29L315.65,292.29L316.42,291.12L316.7,288.4L316.92,288.45L317.47,288.54L319.4,272.01L319.55,272.57L320.5,268.75L320.68,264.67L323.78,226.82L324,226.83L324.25,225.49L324.45,220.06L327.9,186.11L328.13,186.29L328.73,184.62L330.23,161.26L330.52,161.43L331.92,156.69L332.25,152.67L332.8,145.56L332.93,145.64L333.37,145.55L334.22,144.33L334.52,137.05L336.23,122.67L336.48,117.31L337.75,98.78L337.97,98.88L338.72,96.37L339.78,90.19L340,88.72L340.23,88.66L340.5,84.65L341.02,79.28L341.23,81.47L341.5,71.68L342,66.5L342.25,66.53L343.27,66.24L343.75,62.83L343.95,60.15L344.65,57.56L344.98,54.54L345.73,51.26L346.02,47.24L346.27,47.13L346.43,45.88L347.03,45.09L347.25,41.04L349.73,23.36" style="vector-effect: non-scaling-stroke; fill: none; stroke: rgb(140, 86, 75); stroke-opacity: 1; stroke-width: 2px; opacity: 1;"/></g><g class="points"/><g class="text"/></g><g class="trace scatter tracea7efee" style="stroke-miterlimit: 2; opacity: 1;"><g class="fills"/><g class="errorbars"/><g class="lines"><path class="js-line" d="M335.2,304L341.37,304L341.37,304L341.95,301.84L343.27,298.79L343.5,293.36L344.48,291.63L344.75,289.87L345.5,289.53L345.72,287.71L346.32,285.84L346.32,285.84L347.07,284.86L347.67,278.27L347.67,278.27L348.18,278.2L350.67,251.84L351.03,251.55L351.38,247.61L351.85,247.71L352.52,245.91L353.5,232.14L353.77,225.84L356.48,195.98L356.63,196.08L357.5,193.03L357.77,190.49L360.27,160.82L360.53,160.46L361.02,154.48L361.23,150.13L362.23,145.1L362.5,144.37L363.6,134.77L364,133.9L364.62,132.63L364.62,132.63L365.62,132.63L368.05,132.34L368.27,128.32L370.3,98.94L370.52,98.5L372.53,89.3L372.75,85.73L374.28,73.25L374.47,73.22L377.23,66.57L377.53,65.03L378.13,63.63L378.13,63.63L378.87,63.53L380.02,63.63L380.32,61L382.03,55.92L382.32,53.39L383.82,36.75L384.07,31.56L384.95,25.63L384.95,25.63L385.58,25.42L385.8,21.7" style="vector-effect: non-scaling-stroke; fill: none; stroke: rgb(227, 119, 194); stroke-opacity: 1; stroke-width: 2px; opacity: 1;"/></g><g class="points"/><g class="text"/></g><g class="trace scatter tracee84e40" style="stroke-miterlimit: 2; opacity: 1;"><g class="fills"/><g class="errorbars"/><g class="lines"><path class="js-line" d="M337.53,300.78L338.73,304L338.98,304L339.27,304L339.27,304L340.42,303.08L341.75,302.91L342.02,299.41L343.23,289.23L343.42,288.75L344.27,288.85L344.52,286.95L344.8,286.09L345.18,286.21L345.53,286.23L345.72,286.13L345.98,282.8L346.72,277.96L347.02,278.34L347.5,273.71L348.53,268.38L348.75,264.18L350,261.07L350.25,257.64L353.27,218.92L353.48,218.87L353.57,219.21L353.98,218.35L354.28,211.78L354.83,207.37L354.83,207.37L355.52,207.18L356.52,194.78L356.62,194.83L357.28,193.35L358.32,177.63L358.32,177.63L358.98,177.82L359.73,166.79L360.07,160.61L361.48,153.21L361.77,149.26L364.52,134.88L364.62,134.82L365.75,134.85L366.02,133.56L366.53,133.32L366.77,127.63L369.5,98.87L369.68,98.89L370.05,97.38L371.78,78.71L372.02,76.55L372.75,69.59L372.9,69.61L373.27,68.73L375.58,65.32L375.77,63.36L376.9,59.36L376.9,59.36L377.52,58.32L377.82,58.03L378.05,55.92L380.03,40.99L380.28,40.09L380.55,39.68L380.73,36.5L382.32,18.85" style="vector-effect: non-scaling-stroke; fill: none; stroke: rgb(127, 127, 127); stroke-opacity: 1; stroke-width: 2px; opacity: 1;"/></g><g class="points"/><g class="text"/></g><g class="trace scatter tracec7ead2" style="stroke-miterlimit: 2; opacity: 1;"><g class="fills"/><g class="errorbars"/><g class="lines"><path class="js-line" d="M352.5,301.23L353.42,304L353.42,304L354.55,304L355.2,301.64L355.53,304L359.53,303.34L359.77,302.23L360.97,292.27L361.1,292.3L361.72,291.52L362.02,289.02L362.2,289.55L362.73,289.53L364.55,272.1L364.78,272.11L365.53,272.07L365.72,269.63L366.9,250.38L367.03,250.46L367.5,249.99L367.75,249.85L368.02,246.03L368.78,242.6L369.05,233.78L369.98,219.78L369.98,219.78L370.57,217.29L371.8,194.75L371.8,194.75L372.23,194.45L374.55,175.51L374.8,168.02L375.78,156.75L376.03,156.56L376.22,156.57L376.52,151.2L378.27,132.48L378.55,132.03L380.77,103.51L381.07,98.73L382.03,98.44L382.3,94.74L383.43,88.79L383.83,87.71L385.03,76.82L385.28,76.72L386.03,75.96L386.1,75.84L388.35,71.36L388.75,71.35L389.3,71.31L389.53,70.49L390.53,70.18L390.73,68.3L393.23,56.94L393.55,52.92L395.75,43.86L396.02,39.91L396.37,39.78L396.83,36.94L397.92,25.15L398.2,24.17L399.05,21.02" style="vector-effect: non-scaling-stroke; fill: none; stroke: rgb(188, 189, 34); stroke-opacity: 1; stroke-width: 2px; opacity: 1;"/></g><g class="points"/><g class="text"/></g><g class="trace scatter tracea55785" style="stroke-miterlimit: 2; opacity: 1;"><g class="fills"/><g class="errorbars"/><g class="lines"><path class="js-line" d="M380.4,250.86L381.32,251.58L381.45,252.8L382.95,268.22L383.27,268.3L384.52,268.27L393.8,275.53L394.28,304L394.73,301.53L403.57,293L404.57,290.76L404.77,288.46L405,288.26L405,288.26L405.5,289.22L406.47,278.62L406.47,278.62L407.07,278.52L408,273.07L408.28,273L410.35,249.62L410.48,249.78L411.05,249.65L414.37,194.02L415.6,179.93L415.87,178.39L416.35,178.28L416.62,175.05L418.88,135.11L419.02,134.65L419.57,133.46L419.9,132.29L420.85,131.67L421.12,130.8L423.9,104.92L424.38,105.03L424.62,104.88L426.13,96.64L426.42,92L427.92,90.66L428.13,87.04L429.78,69.8L430.12,69.14L430.38,66.21L430.92,66.28L431.42,64.36L435.9,32.83L436.15,27.33L436.58,25.36L436.58,25.36L437.37,25.53L437.9,17.71" style="vector-effect: non-scaling-stroke; fill: none; stroke: rgb(23, 190, 207); stroke-opacity: 1; stroke-width: 2px; opacity: 1;"/></g><g class="points"/><g class="text"/></g><g class="trace scatter trace18269d" style="stroke-miterlimit: 2; opacity: 1;"><g class="fills"/><g class="errorbars"/><g class="lines"><path class="js-line" d="M390.98,302.81L391.33,303.22L391.33,303.22L396.33,303.22L397.52,300.37L397.78,297.79L398.33,292.56L398.33,292.56L399.05,291.63L399.3,287.54L399.6,287.89L400.28,286.52L402.3,263.56L402.82,260.07L403.57,257.43L403.77,253.45L405.55,239.09L405.8,229.85L408.8,201.25L408.98,196.54L410.33,185.61L410.53,180.32L414.65,147.29L414.65,147.29L415.38,145.77L416.52,145.06L416.87,142.93L417.87,134.72L418.05,134.29L418.57,132.77L418.57,132.77L419.55,132.44L420.8,129.05L421.15,127.27L422.95,114.71L422.95,114.71L423.63,111.01L424.13,106.99L424.63,107.07L425.1,104.67L428.88,90.97L428.88,90.97L429.67,88.92L430.15,86.93L430.38,82.14L433.3,66.58L433.5,66.55L434.62,64.56L434.88,62.25L435.28,61.38L435.67,59.28L435.85,59.27L435.85,59.27L436.32,58.05L437.32,52.96L437.43,53.04L438.13,49.09L439.4,40.01L439.65,36.11L440.53,25.74L440.53,25.74L441.63,23.91L441.92,18.46" style="vector-effect: non-scaling-stroke; fill: none; stroke: rgb(31, 119, 180); stroke-opacity: 1; stroke-width: 2px; opacity: 1;"/></g><g class="points"/><g class="text"/></g><g class="trace scatter trace120a6e" style="stroke-miterlimit: 2; opacity: 1;"><g class="fills"/><g class="errorbars"/><g class="lines"><path class="js-line" d="M397.37,299.43L405.08,299.43L405.3,298.6L406.05,291.9L406.05,291.9L406.83,291.9L409.33,292.38L409.53,292.76L411.05,293.02L414.22,278.49L414.9,301.53L415.08,301.35L415.4,301.3L416.05,304L416.05,304L416.92,304L427.07,304L427.4,301.18L428.4,298.57L428.67,293.14L429.15,292.33L429.15,292.33L429.67,291.94L429.9,288.7L430.3,289.16L430.9,287.27L432.38,275.69L432.65,272.62L433.05,273.05L433.37,272.87L433.62,272.86L435.15,271.69L435.15,271.69L436.03,271.76L437.67,271.31L437.87,267.09L438.45,259.42L438.45,259.42L439.17,258.23L439.75,249.88L440.08,250.33L440.37,249.82L440.58,249.7L440.83,248.04L441.37,246.8L441.62,244.22L441.9,244.22L442.12,242.16L442.63,226.99L443.1,228.04L443.37,226.24L446.42,188.29L446.57,186.9L449.67,156.29L449.77,156.34L450.07,156.14L450.6,154.12L450.92,147.95L453.15,132.09L453.2,132.13L453.62,132.13L454.6,123.6L454.92,124.59L455.15,124.31L455.42,124.66L455.42,124.66L456.42,124.66L456.87,124.08L457.17,119.98L458.72,98.8L459.12,98.75L461.33,78.5L461.33,78.5L461.87,78.79L462.78,78.79L463.15,77.49L464.22,69.23L464.67,68.5L466.4,62.46L466.68,59.61L468.05,56.11L468.37,53.41L469.55,53.35L469.55,53.35L470.4,47.82L471.42,45.67L471.97,42.9L473.65,24.14" style="vector-effect: non-scaling-stroke; fill: none; stroke: rgb(255, 127, 14); stroke-opacity: 1; stroke-width: 2px; opacity: 1;"/></g><g class="points"/><g class="text"/></g><g class="trace scatter traceb601db" style="stroke-miterlimit: 2; opacity: 1;"><g class="fills"/><g class="errorbars"/><g class="lines"><path class="js-line" d="M423.75,299.43L432.87,299.43L433.13,296.65L433.9,291.9L434.18,291.9L438.4,292.54L438.52,293.2L438.88,294.54L439.38,294.34L439.65,292.64L440.13,291.98L440.37,289.58L441.05,285.49L441.27,285.55L441.9,279.21L442.38,277.9L442.67,301.5L442.92,301.52L443.13,303.03L443.97,304L443.97,304L444.68,304L447.32,289.43L447.65,288.57L448.17,288.06L448.4,285.24L450.38,261.12L450.67,258.47L450.88,259.2L451.43,258.65L451.63,253.3L453.12,226.55L453.37,226.65L453.6,226.39L455.18,207.52L455.38,207.32L457.45,177.74L457.65,177.74L458.33,177.44L458.63,173.72L460.1,159.51L460.35,156.37L460.65,155.5L460.92,149.42L462.43,135.2L462.63,135.22L463.18,129.28L463.45,124.02L464.4,114.48L464.4,114.48L464.83,114.51L465.68,108.99L465.93,105.72L466.9,104.04L467.18,103.99L468.88,90.81L469.15,90.87L469.65,90.79L469.92,86.58L471.43,73.42L471.67,70.34L473.02,66.32L473.45,64.78L474.38,59.07L474.7,59.18L475.18,59.2L475.37,59.2L475.67,56.52L476.15,55.7L476.37,52.74L478.4,36.47L478.65,33.69L479.9,21.85" style="vector-effect: non-scaling-stroke; fill: none; stroke: rgb(44, 160, 44); stroke-opacity: 1; stroke-width: 2px; opacity: 1;"/></g><g class="points"/><g class="text"/></g><g class="trace scatter trace9e082c" style="stroke-miterlimit: 2; opacity: 1;"><g class="fills"/><g class="errorbars"/><g class="lines"><path class="js-line" d="M433.68,301.44L434.5,304L434.5,304L439.5,304L452.27,304L452.27,304L452.82,303.17L453.95,297.17L454.13,293.34L455.8,278.55L456.02,278.31L456.62,272.41L456.83,270.87L457,270.89L457.6,268.72L458.63,259.66L458.93,258.11L459.65,249.56L459.73,249.58L460.58,249.56L461.9,227.73L462.2,221.09L465.18,164.6L465.4,162.41L468.18,146.7L468.37,149.18L468.68,141.84L470.42,121.42L470.6,121.91L470.92,122.97L471.18,127.27L471.68,133.18L471.9,133.12L472.42,133.15L473.4,142.2L473.65,143.7L473.93,147.84" style="vector-effect: non-scaling-stroke; fill: none; stroke: rgb(214, 39, 40); stroke-opacity: 1; stroke-width: 2px; opacity: 1;"/></g><g class="points"/><g class="text"/></g><g class="trace scatter trace1814b1" style="stroke-miterlimit: 2; opacity: 1;"><g class="fills"/><g class="errorbars"/><g class="lines"><path class="js-line" d="M451.82,299.43L454.4,299.43L454.67,293.07L455.43,291.9L455.67,291.9L459.67,291.9L459.95,292.87L460.32,294.55L460.53,294.21L460.9,293.35L461.35,291.9L461.63,287.66L462.55,285.78L462.82,285.78L463.45,277.5L463.7,278.34L463.88,301.35L464.2,301.24L464.38,304L470.38,304L470.38,304L473.92,303.07L474.38,304L474.38,304L476.9,303.97L477.68,299.07L477.95,294.53L479.4,288.97L479.65,288.91L480.45,284.17L480.67,279.06L481.7,275.12L481.97,272.16L482.87,272.02L483.15,269.17L483.87,258.78L484,258.9L484.67,257.63L485.33,250.13L485.63,250.49L485.97,249.94L486.12,249.86L486.47,247.61L486.9,246.32L487.18,241.89L488.47,219.43L488.7,219.48L489.4,216.79L489.7,209.94L490.82,194.4L491.12,192.56L492.72,175.8L492.93,170.45L495,156.71L495.33,156.68L497.97,132.69L498.13,132.3L498.42,131.64L498.73,125.19L499.18,124.75L499.43,120.19L500.7,103.82L500.93,104.05L501.15,102.41L502.65,91.76L502.97,88.68L503.15,88.62L503.43,85.43L504.97,69.36L505.17,68.13L506.72,61.44L506.87,60.55L508.68,58.71L508.95,56.53L510.68,40.02L510.9,40.12L511.2,38.98L511.47,33.5L512.72,29.13L512.75,29.15L513.7,26.83L513.95,22.88L514.22,19.22" style="vector-effect: non-scaling-stroke; fill: none; stroke: rgb(148, 103, 189); stroke-opacity: 1; stroke-width: 2px; opacity: 1;"/></g><g class="points"/><g class="text"/></g><g class="trace scatter traceb4d07d" style="stroke-miterlimit: 2; opacity: 1;"><g class="fills"/><g class="errorbars"/><g class="lines"><path class="js-line" d="M458.12,304L460.6,303.74L460.93,300.37L461.62,300.22L461.93,293.39L463.5,288.82L463.5,288.82L464.18,288.19L465.42,277.81L465.42,277.81L465.93,276.77L466.17,272.38L466.33,273.06L467.22,267.17L467.83,259.51L467.83,259.51L468.67,255.47L469.08,250.49L469.38,250.75L470.43,247.84L471.67,235.46L471.9,230.09L474.65,212.37L474.93,207.88L475.62,207.7L475.95,202.87L476.7,195.7L476.7,195.7L477.38,194.42L477.92,189.44L478.12,186.49L478.67,184.81L478.92,179.32L479.65,171.03L479.87,168.48L480.62,161.44L480.62,161.44L481.73,161.44L482.6,156.4L482.6,156.4L483.62,156.4L484.63,156.4L484.63,156.4L485.63,153.7L486.12,146.45L486.12,146.45L486.9,145.86L488.18,134.7L488.35,135L489.68,132.69L490.65,131.99L490.97,127.28L492.22,117.58L492.48,111.83L493.12,105.36L493.12,105.36L493.88,104.23L494.17,103.86L494.45,99.18L497.22,82.65L497.43,78.83L497.7,78.86L497.97,73.69L498.87,66.19L498.87,66.19L499.45,66.1L499.95,65.79L500.18,63.61L500.47,62.93L500.75,60.01L500.88,59.73L500.88,59.73L502.83,58.39L504.92,45.62L505.12,45.67L505.47,45.54L507.18,27.26L507.45,27.41L507.95,23.09L508.22,19.69" style="vector-effect: non-scaling-stroke; fill: none; stroke: rgb(140, 86, 75); stroke-opacity: 1; stroke-width: 2px; opacity: 1;"/></g><g class="points"/><g class="text"/></g><g class="trace scatter trace9e6b20" style="stroke-miterlimit: 2; opacity: 1;"><g class="fills"/><g class="errorbars"/><g class="lines"><path class="js-line" d="M550.93,301.25L551.28,303.6L551.8,303.52L553.8,304L556,303.11L556,303.11L556.43,304L558.12,303.11L558.45,303.07L559.23,298.38L559.52,293.4L561.53,287.65L561.78,284.03L563.48,272.61L563.58,272.61L564.23,272.46L564.52,269.37L566.07,258.99L566.53,256.28L567,256.55L567.78,255.63L568.25,255.6L570.03,255.4L570.28,253.82L572.35,252.08L572.8,247.57L573.23,246.94L573.52,238.6L575.15,217.39L575.55,213.45L576.05,213.41L576.23,209.1L576.78,201.38L577.03,195.95L577.78,194.25L578.05,187.59L579.47,177.91L579.68,177.92L580.02,176.74L580.27,171.03L584.77,132.76L585.05,132.39L589.58,90.95L589.58,90.95L590.27,90.68L596.53,45.52L596.82,45.11L599.3,26.82L599.3,26.82L599.77,24.9L600.08,17.28" style="vector-effect: non-scaling-stroke; fill: none; stroke: rgb(227, 119, 194); stroke-opacity: 1; stroke-width: 2px; opacity: 1;"/></g><g class="points"/><g class="text"/></g><g class="trace scatter trace36000a" style="stroke-miterlimit: 2; opacity: 1;"><g class="fills"/><g class="errorbars"/><g class="lines"><path class="js-line" d="M565.72,301.82L565.98,301.32L566.18,304L579.7,303.86L579.88,302.19L583.28,285.22L583.48,276.11L587.83,253.45L587.83,253.45L588.42,252.84L589.55,248.98L589.77,247.27L593.82,197.99L594.07,195.01L597.75,161.18L597.75,161.18L598.55,161.25L601.05,145.21L601.15,145.3L601.83,141.72L604.28,121.34L604.53,115.66L609.03,88.46L609.3,87.89L612.57,52.94L612.57,52.94L613.05,52.05L616.28,19.22" style="vector-effect: non-scaling-stroke; fill: none; stroke: rgb(127, 127, 127); stroke-opacity: 1; stroke-width: 2px; opacity: 1;"/></g><g class="points"/><g class="text"/></g><g class="trace scatter trace9a02e5" style="stroke-miterlimit: 2; opacity: 1;"><g class="fills"/><g class="errorbars"/><g class="lines"><path class="js-line" d="M594.93,301.33L595.43,304L595.43,304L600.43,304L605.9,304L606.3,300.24L607.05,299.77L607.27,295.16L611.77,272.05L612.08,271.09L616.58,250.14L616.8,251.55L617.02,250.96L621.82,207.74L622.08,200.45L624.75,177.75L625.07,173.73L628.17,153.45L628.17,153.45L628.83,151.03L631.62,132.56L631.62,132.56L632.8,131.37L636.38,98.69L636.78,98.16L640.07,86.39L640.33,80.71L644.52,59.21L644.85,58.2L646.33,51.84L646.55,49.6L650.58,25.61L650.83,25.57L651.57,25.3L651.87,21.05" style="vector-effect: non-scaling-stroke; fill: none; stroke: rgb(188, 189, 34); stroke-opacity: 1; stroke-width: 2px; opacity: 1;"/></g><g class="points"/><g class="text"/></g><g class="trace scatter trace16d10f" style="stroke-miterlimit: 2; opacity: 1;"><g class="fills"/><g class="errorbars"/><g class="lines"><path class="js-line" d="M611.02,301.28L612.82,304L612.82,304L613.82,304L628.08,304L628.08,304L628.85,301.93L632.83,286L633.02,286.13L637.57,254.12L637.82,252.04L638.83,249.81L639.05,247.3L639.83,243.71L640.07,242.37L643.55,196.94L643.85,196.81L646.12,177.31L646.33,172.9L647.77,155L648,154.09L651.35,132.42L651.62,131.69L664.75,39.97L665.12,39.1L665.88,23.44" style="vector-effect: non-scaling-stroke; fill: none; stroke: rgb(23, 190, 207); stroke-opacity: 1; stroke-width: 2px; opacity: 1;"/></g><g class="points"/><g class="text"/></g><g class="trace scatter tracebc8450" style="stroke-miterlimit: 2; opacity: 1;"><g class="fills"/><g class="errorbars"/><g class="lines"><path class="js-line" d="M643.45,242.88L644.88,241.28L645.08,240.63L645.83,239.35L647.17,239.51L647.6,242.73L648.8,255.99L649.12,303.86L650.58,304L650.82,271.39L650.97,270.9L651.33,271.28L651.83,304L652.1,274.49L654.08,304L654.75,304L656.67,301.76L657.03,299.67L657.85,297.27L658.1,291.55L659.07,291.23L659.27,288.31L660.07,288.58L665.12,253.94L665.35,248.97L667.33,233.16L667.62,227.17L670.55,214L670.8,210.67L674.9,178.18L675.03,178.19L675.63,178.27L675.87,172.84L678.9,156.68L678.9,156.68L679.67,156.65L680.82,153.48L681.12,146.9L683.37,146.22L683.37,146.22L684.25,146.21L686.88,145.57L687.13,138.18L693.77,91.19L694.12,88.47L694.85,88.59L695.13,85.66L699.38,53.83L699.62,52.71L701.12,41.34L701.4,35.55L702.37,19.9" style="vector-effect: non-scaling-stroke; fill: none; stroke: rgb(31, 119, 180); stroke-opacity: 1; stroke-width: 2px; opacity: 1;"/></g><g class="points"/><g class="text"/></g><g class="trace scatter trace1b218b" style="stroke-miterlimit: 2; opacity: 1;"><g class="fills"/><g class="errorbars"/><g class="lines"><path class="js-line" d="M666.8,301.66L667.27,304L667.27,304L672.27,304L675.03,303.97L675.38,300.36L676.37,297.31L676.62,292.51L677.63,292.39L677.88,289.2L679.1,284.02L679.38,278.48L680.37,275.74L680.63,271.88L681.62,271.36L681.88,267.92L686.35,219.24L686.9,219.3L687.17,217.34L690.38,183.61L690.63,178.24L691.9,178.09L692.17,173.64L696.3,145.4L696.6,145.27L704.65,90.94L704.72,90.97L705.2,90.94L712.15,52.96L712.38,52.91L715.9,19.87" style="vector-effect: non-scaling-stroke; fill: none; stroke: rgb(255, 127, 14); stroke-opacity: 1; stroke-width: 2px; opacity: 1;"/></g><g class="points"/><g class="text"/></g><g class="trace scatter tracedabe98" style="stroke-miterlimit: 2; opacity: 1;"><g class="fills"/><g class="errorbars"/><g class="lines"><path class="js-line" d="M677.58,299.43L685.4,299.43L685.63,295.67L688.4,291.9L688.88,291.9L691.85,292.07L692.17,290.64L694.13,278.06L694.62,278.55L694.87,301.14L695.67,304L696.87,302.02L697.87,297.59L702.35,272.91L702.63,272.86L711.17,194.26L711.17,194.26L711.17,194.26L712.42,178.71L712.67,171.59L720.67,98.63L721.13,98.72L721.38,98.02L727.67,52.96L727.97,52.96L731.9,32.25L732.18,29.05L734.47,22.71L734.47,22.71" style="vector-effect: non-scaling-stroke; fill: none; stroke: rgb(44, 160, 44); stroke-opacity: 1; stroke-width: 2px; opacity: 1;"/></g><g class="points"/><g class="text"/></g><g class="trace scatter trace167c30" style="stroke-miterlimit: 2; opacity: 1;"><g class="fills"/><g class="errorbars"/><g class="lines"><path class="js-line" d="M697.57,299.43L704.62,297.85L704.85,291.9L711.25,292.12L711.25,292.12L711.95,290.91L712.9,278.26L713.38,278.48L713.68,301.43L714.67,304L715.55,292.37L715.55,292.37L716.4,291.27L728.95,178.36L729.1,177.96L731.93,147.39L732.2,140.77L737.97,88.54L737.97,88.54L738.33,88.48L738.92,81.76L739.2,78.46L743.33,59.16L743.33,59.16L744.33,59.16L746.48,42.29L746.68,37.72L747.97,20.96" style="vector-effect: non-scaling-stroke; fill: none; stroke: rgb(214, 39, 40); stroke-opacity: 1; stroke-width: 2px; opacity: 1;"/></g><g class="points"/><g class="text"/></g><g class="trace scatter trace876c47" style="stroke-miterlimit: 2; opacity: 1;"><g class="fills"/><g class="errorbars"/><g class="lines"><path class="js-line" d="M717.58,299.43L727.43,299.43L727.68,242.88L731.4,240.75L731.67,239.45L732.15,238.37L733.67,239.47L733.97,245.17L736.15,303.86L737.68,293.08L737.9,290.88L752.22,184.28L752.43,178.99L754.97,160.15L755.23,156.56L756.88,146.6L757.07,145.22L758.65,141.77L758.92,136.04L763.45,102.32L763.73,98.78L766.95,77.41L767.22,72.98L773.4,33.46L773.7,32.41L774.47,19.81" style="vector-effect: non-scaling-stroke; fill: none; stroke: rgb(148, 103, 189); stroke-opacity: 1; stroke-width: 2px; opacity: 1;"/></g><g class="points"/><g class="text"/></g><g class="trace scatter trace0725bf" style="stroke-miterlimit: 2; opacity: 1;"><g class="fills"/><g class="errorbars"/><g class="lines"><path class="js-line" d="M745.92,301.32L746.43,304L746.43,304L750.52,304L756.43,302.83L756.65,297.04L761.32,283.49L761.67,281.89L767.93,221.04L768.17,221.07L772.47,177.54L772.7,177.84L773.73,164.29L773.93,160.07L788.22,59.5L788.53,59.36L789.9,53.39L790.15,52.09L793.97,21.3" style="vector-effect: non-scaling-stroke; fill: none; stroke: rgb(140, 86, 75); stroke-opacity: 1; stroke-width: 2px; opacity: 1;"/></g><g class="points"/><g class="text"/></g><g class="trace scatter tracec62155" style="stroke-miterlimit: 2; opacity: 1;"><g class="fills"/><g class="errorbars"/><g class="lines"><path class="js-line" d="M756.53,299.43L763.2,298.92L763.48,292.5L768.2,291.9L768.48,294.05L770.75,290.86L770.98,287.39L772.47,277.55L773.42,300.95L773.73,304L775.22,298.75L775.4,295.71L788.73,184.53L789.03,178.2L790.15,168.88L790.52,161.44L793.98,139.09L794.27,135.28L805.8,49.55L806,45.26L808.02,21.15" style="vector-effect: non-scaling-stroke; fill: none; stroke: rgb(227, 119, 194); stroke-opacity: 1; stroke-width: 2px; opacity: 1;"/></g><g class="points"/><g class="text"/></g><g class="trace scatter trace4ac7b6" style="stroke-miterlimit: 2; opacity: 1;"><g class="fills"/><g class="errorbars"/><g class="lines"><path class="js-line" d="M780.48,301.25L784.63,304L784.63,304L786.23,304L796.2,301.69L796.53,298.01L800.77,271.27L801.78,271.48L802.25,271.48L808.02,244.86L808.27,238.39L814.82,186.29L815.28,186.21L821.03,144.77L821.7,144.81L822.05,139.29L828.97,98.41L829.3,97.38L830.25,97.49L830.52,94.66L830.78,92.23L838.57,43.76L838.82,39.63L840.03,37.07L840.32,32.11L841.77,22.33" style="vector-effect: non-scaling-stroke; fill: none; stroke: rgb(127, 127, 127); stroke-opacity: 1; stroke-width: 2px; opacity: 1;"/></g><g class="points"/><g class="text"/></g><g class="trace scatter trace5c22b8" style="stroke-miterlimit: 2; opacity: 1;"><g class="fills"/><g class="errorbars"/><g class="lines"><path class="js-line" d="M796.73,304L814.95,300.05L815.28,292.23L817.45,288.8L817.78,284.48L826.82,177.84L827.05,178.09L827.28,174.31L834.92,90.99L834.92,90.99L835.8,88.53L844.03,22.68" style="vector-effect: non-scaling-stroke; fill: none; stroke: rgb(188, 189, 34); stroke-opacity: 1; stroke-width: 2px; opacity: 1;"/></g><g class="points"/><g class="text"/></g><g class="trace scatter tracefafa80" style="stroke-miterlimit: 2; opacity: 1;"><g class="fills"/><g class="errorbars"/><g class="lines"><path class="js-line" d="M824.3,301.5L828.38,304L828.38,304L829.4,304L832.3,300.72L832.5,297.79L841.12,248.56L841.12,248.56L842.05,248.12L852.78,157.39L853.05,156.5L855.32,139.65L855.55,135.33L859.58,112.26L859.83,106.96L868.6,59.4L868.8,59.48L868.93,59.47L871.58,45.71L871.72,45.82L872.08,43.82L873.87,21.12" style="vector-effect: non-scaling-stroke; fill: none; stroke: rgb(23, 190, 207); stroke-opacity: 1; stroke-width: 2px; opacity: 1;"/></g><g class="points"/><g class="text"/></g><g class="trace scatter trace74fe75" style="stroke-miterlimit: 2; opacity: 1;"><g class="fills"/><g class="errorbars"/><g class="lines"><path class="js-line" d="M837.47,301.92L841.77,304L841.77,304L844.42,304L854.08,300.72L854.27,289.78L854.67,293.35L857.53,273.68L857.8,271.19L860.13,272.03L860.57,263.52L869.78,188.87L869.78,188.87L870.25,188.14L881.85,96.81L881.88,96.82L883.07,96.56L891,22.7L891.58,24.92" style="vector-effect: non-scaling-stroke; fill: none; stroke: rgb(31, 119, 180); stroke-opacity: 1; stroke-width: 2px; opacity: 1;"/></g><g class="points"/><g class="text"/></g><g class="trace scatter tracecaa528" style="stroke-miterlimit: 2; opacity: 1;"><g class="fills"/><g class="errorbars"/><g class="lines"><path class="js-line" d="M859,301.48L859.98,304L859.98,304L864.68,304L876.35,299.73L876.6,297.45L884.87,248.71L884.97,248.62L907.83,21.05" style="vector-effect: non-scaling-stroke; fill: none; stroke: rgb(255, 127, 14); stroke-opacity: 1; stroke-width: 2px; opacity: 1;"/></g><g class="points"/><g class="text"/></g><g class="trace scatter trace926143" style="stroke-miterlimit: 2; opacity: 1;"><g class="fills"/><g class="errorbars"/><g class="lines"><path class="js-line" d="M881.35,299.43L888.35,297.79L888.58,291.9L894.83,290.97L895.08,288.04L896.83,277.72L897.98,303.86L900.63,289.06L900.82,288.96L909.57,217.86L909.85,214.86L919.85,112.87L920.17,105.39L923.15,95.3L923.4,91.22L929.9,19.83" style="vector-effect: non-scaling-stroke; fill: none; stroke: rgb(44, 160, 44); stroke-opacity: 1; stroke-width: 2px; opacity: 1;"/></g><g class="points"/><g class="text"/></g><g class="trace scatter traceba518c" style="stroke-miterlimit: 2; opacity: 1;"><g class="fills"/><g class="errorbars"/><g class="lines"><path class="js-line" d="M909.77,299.43L916.85,296.17L917.15,291.9L924.05,291.21L924.37,287.63L925.15,276.99L927.3,304L927.98,304L929.38,304L944.37,215.21L944.6,209.88L967.92,21.89" style="vector-effect: non-scaling-stroke; fill: none; stroke: rgb(214, 39, 40); stroke-opacity: 1; stroke-width: 2px; opacity: 1;"/></g><g class="points"/><g class="text"/></g><g class="trace scatter trace7264fa" style="stroke-miterlimit: 2; opacity: 1;"><g class="fills"/><g class="errorbars"/><g class="lines"><path class="js-line" d="M912.8,301.78L918.28,304L918.28,304L919.57,304L923.4,280.98L923.62,275.39L938.23,146.33L938.65,146.1L958.18,18.6" style="vector-effect: non-scaling-stroke; fill: none; stroke: rgb(148, 103, 189); stroke-opacity: 1; stroke-width: 2px; opacity: 1;"/></g><g class="points"/><g class="text"/></g><g class="trace scatter trace1428ab" style="stroke-miterlimit: 2; opacity: 1;"><g class="fills"/><g class="errorbars"/><g class="lines"><path class="js-line" d="M924.15,299.43L937.63,299.43L937.88,227.66L941.4,209.54L941.65,89.58L945.87,16L947.25,24.46L948.43,24.91L949.68,28.94L952.38,16L953.4,16L954.4,16L956.13,20.29L956.43,23.43L958.13,33.14L958.4,38.4L960.13,57.64" style="vector-effect: non-scaling-stroke; fill: none; stroke: rgb(140, 86, 75); stroke-opacity: 1; stroke-width: 2px; opacity: 1;"/></g><g class="points"/><g class="text"/></g><g class="trace scatter tracef41a8c" style="stroke-miterlimit: 2; opacity: 1;"><g class="fills"/><g class="errorbars"/><g class="lines"><path class="js-line" d="M933.53,299.43L935.68,297.18L935.9,291.9L941.62,289.01L941.9,285.16L942.6,277.92L944.38,304L947.32,304L948.43,304L955.15,266.38L955.43,260.49L960.62,201.45L960.95,195.56L971.93,118.35L972.18,112.26L981.92,18.65" style="vector-effect: non-scaling-stroke; fill: none; stroke: rgb(227, 119, 194); stroke-opacity: 1; stroke-width: 2px; opacity: 1;"/></g><g class="points"/><g class="text"/></g><g class="trace scatter trace32e35d" style="stroke-miterlimit: 2; opacity: 1;"><g class="fills"/><g class="errorbars"/><g class="lines"><path class="js-line" d="M969.68,304L975.17,297.92L975.38,293.12L977.9,283.7L978.18,274L996.72,133.82L996.88,134.95L998.93,124.62L999.17,120.14L1007.93,20.74" style="vector-effect: non-scaling-stroke; fill: none; stroke: rgb(127, 127, 127); stroke-opacity: 1; stroke-width: 2px; opacity: 1;"/></g><g class="points"/><g class="text"/></g><g class="trace scatter tracebb41fd" style="stroke-miterlimit: 2; opacity: 1;"><g class="fills"/><g class="errorbars"/><g class="lines"><path class="js-line" d="M984.37,300.87L985.1,303.96L989.28,292.36L989.72,292.38L989.92,291.49L1019.93,23.23" style="vector-effect: non-scaling-stroke; fill: none; stroke: rgb(188, 189, 34); stroke-opacity: 1; stroke-width: 2px; opacity: 1;"/></g><g class="points"/><g class="text"/></g><g class="trace scatter tracebadf48" style="stroke-miterlimit: 2; opacity: 1;"><g class="fills"/><g class="errorbars"/><g class="lines"><path class="js-line" d="M1008.5,302.98L1016.68,298.27L1016.92,294.71L1020.23,278.36L1020.5,272.55L1023.23,250.01L1023.5,247.94L1033.97,122.94L1034.23,117.05L1044.02,18.62" style="vector-effect: non-scaling-stroke; fill: none; stroke: rgb(23, 190, 207); stroke-opacity: 1; stroke-width: 2px; opacity: 1;"/></g><g class="points"/><g class="text"/></g><g class="trace scatter trace7aed48" style="stroke-miterlimit: 2; opacity: 1;"><g class="fills"/><g class="errorbars"/><g class="lines"><path class="js-line" d="M1012.35,301.51L1016.45,298.38L1016.67,295.28L1032.02,120.86L1037,146.3L1037.25,152.9L1037.45,156.59" style="vector-effect: non-scaling-stroke; fill: none; stroke: rgb(31, 119, 180); stroke-opacity: 1; stroke-width: 2px; opacity: 1;"/></g><g class="points"/><g class="text"/></g><g class="trace scatter trace019e26" style="stroke-miterlimit: 2; opacity: 1;"><g class="fills"/><g class="errorbars"/><g class="lines"><path class="js-line" d="M1036.17,301.43L1036.73,303.97L1040.73,280.65L1040.98,273.26L1073.55,70.54L1073.55,70.54L1092.77,67.05L1096.32,19.99" style="vector-effect: non-scaling-stroke; fill: none; stroke: rgb(255, 127, 14); stroke-opacity: 1; stroke-width: 2px; opacity: 1;"/></g><g class="points"/><g class="text"/></g><g class="trace scatter tracef84eee" style="stroke-miterlimit: 2; opacity: 1;"><g class="fills"/><g class="errorbars"/><g class="lines"><path class="js-line" d="M1050.98,301.35L1051.5,304L1055.43,271.95L1055.43,271.95L1055.93,271.88L1061.25,204.94L1061.5,199.32L1080.27,18.2" style="vector-effect: non-scaling-stroke; fill: none; stroke: rgb(44, 160, 44); stroke-opacity: 1; stroke-width: 2px; opacity: 1;"/></g><g class="points"/><g class="text"/></g><g class="trace scatter trace155f7c" style="stroke-miterlimit: 2; opacity: 1;"><g class="fills"/><g class="errorbars"/><g class="lines"><path class="js-line" d="M1068.52,304L1072.7,297.27L1073.02,293.15L1080.98,244.14L1081.27,238.41L1094.22,97.98L1094.22,97.98L1094.77,97.94L1103.93,22.32L1103.93,22.32" style="vector-effect: non-scaling-stroke; fill: none; stroke: rgb(214, 39, 40); stroke-opacity: 1; stroke-width: 2px; opacity: 1;"/></g><g class="points"/><g class="text"/></g><g class="trace scatter trace889b2e" style="stroke-miterlimit: 2; opacity: 1;"><g class="fills"/><g class="errorbars"/><g class="lines"><path class="js-line" d="M1072.27,301.81L1080.05,304L1080.05,304L1081.05,304L1083.3,297.7L1083.57,293.06L1089.02,258.58L1089.02,258.58L1090.07,252.21L1111.28,18.44" style="vector-effect: non-scaling-stroke; fill: none; stroke: rgb(148, 103, 189); stroke-opacity: 1; stroke-width: 2px; opacity: 1;"/></g><g class="points"/><g class="text"/></g><g class="trace scatter trace2a4b0f" style="stroke-miterlimit: 2; opacity: 1;"><g class="fills"/><g class="errorbars"/><g class="lines"><path class="js-line" d="M1113.57,270.03L1114.57,304L1119.8,237.27L1120.05,230.12L1139.37,21.79" style="vector-effect: non-scaling-stroke; fill: none; stroke: rgb(140, 86, 75); stroke-opacity: 1; stroke-width: 2px; opacity: 1;"/></g><g class="points"/><g class="text"/></g><g class="trace scatter trace260ea4" style="stroke-miterlimit: 2; opacity: 1;"><g class="fills"/><g class="errorbars"/><g class="lines"><path class="js-line" d="M1108.33,301.53L1108.77,304L1115.02,281.02L1115.33,273.28L1143.8,16L1144.05,25.84L1145.52,36.68" style="vector-effect: non-scaling-stroke; fill: none; stroke: rgb(227, 119, 194); stroke-opacity: 1; stroke-width: 2px; opacity: 1;"/></g><g class="points"/><g class="text"/></g><g class="trace scatter trace3f0f66" style="stroke-miterlimit: 2; opacity: 1;"><g class="fills"/><g class="errorbars"/><g class="lines"><path class="js-line" d="M1140.55,304L1152.08,219.57L1152.37,214.17L1168.37,20" style="vector-effect: non-scaling-stroke; fill: none; stroke: rgb(127, 127, 127); stroke-opacity: 1; stroke-width: 2px; opacity: 1;"/></g><g class="points"/><g class="text"/></g><g class="trace scatter traceb7f727" style="stroke-miterlimit: 2; opacity: 1;"><g class="fills"/><g class="errorbars"/><g class="lines"><path class="js-line" d="M1181.28,300.51L1193.67,140.08L1193.88,135.11L1196.12,100.32L1196.4,97.47L1203.38,16L1205.05,26.4" style="vector-effect: non-scaling-stroke; fill: none; stroke: rgb(188, 189, 34); stroke-opacity: 1; stroke-width: 2px; opacity: 1;"/></g><g class="points"/><g class="text"/></g></g></g><g class="overplot"/><path class="xlines-above crisp" d="M79,420.5H620" style="fill: none; stroke-width: 1px; stroke: rgb(36, 36, 36); stroke-opacity: 1;"/><path class="ylines-above crisp" d="M79.5,100V420" style="fill: none; stroke-width: 1px; stroke: rgb(36, 36, 36); stroke-opacity: 1;"/><g class="overlines-above"/><g class="xaxislayer-above"><path class="xtick ticks crisp" d="M0,421v5" transform="translate(80,0)" style="stroke: rgb(68, 68, 68); stroke-opacity: 1; stroke-width: 1px;"/><path class="xtick ticks crisp" d="M0,421v5" transform="translate(200,0)" style="stroke: rgb(68, 68, 68); stroke-opacity: 1; stroke-width: 1px;"/><path class="xtick ticks crisp" d="M0,421v5" transform="translate(320,0)" style="stroke: rgb(68, 68, 68); stroke-opacity: 1; stroke-width: 1px;"/><path class="xtick ticks crisp" d="M0,421v5" transform="translate(440,0)" style="stroke: rgb(68, 68, 68); stroke-opacity: 1; stroke-width: 1px;"/><path class="xtick ticks crisp" d="M0,421v5" transform="translate(560,0)" style="stroke: rgb(68, 68, 68); stroke-opacity: 1; stroke-width: 1px;"/><g class="xtick"><text text-anchor="middle" x="0" y="440.4" transform="translate(80,0)" style="font-family: 'Open Sans', verdana, arial, sans-serif; font-size: 12px; fill: rgb(36, 36, 36); fill-opacity: 1; white-space: pre; opacity: 1;"><tspan class="line" dy="0em" x="0" y="440.4">06:00</tspan><tspan class="line" dy="1.3em" x="0" y="440.4">Jun 1, 2024</tspan></text></g><g class="xtick"><text text-anchor="middle" x="0" y="440.4" style="font-family: 'Open Sans', verdana, arial, sans-serif; font-size: 12px; fill: rgb(36, 36, 36); fill-opacity: 1; white-space: pre; opacity: 1;" transform="translate(200,0)">08:00</text></g><g class="xtick"><text text-anchor="middle" x="0" y="440.4" style="font-family: 'Open Sans', verdana, arial, sans-serif; font-size: 12px; fill: rgb(36, 36, 36); fill-opacity: 1; white-space: pre; opacity: 1;" transform="translate(320,0)">10:00</text></g><g class="xtick"><text text-anchor="middle" x="0" y="440.4" style="font-family: 'Open Sans', verdana, arial, sans-serif; font-size: 12px; fill: rgb(36, 36, 36); fill-opacity: 1; white-space: pre; opacity: 1;" transform="translate(440,0)">12:00</text></g><g class="xtick"><text text-anchor="middle" x="0" y="440.4" style="font-family: 'Open Sans', verdana, arial, sans-serif; font-size: 12px; fill: rgb(36, 36, 36); fill-opacity: 1; white-space: pre; opacity: 1;" transform="translate(560,0)">14:00</text></g></g><g class="yaxislayer-above"><path class="ytick ticks crisp" d="M79,0h-5" transform="translate(0,404)" style="stroke: rgb(68, 68, 68); stroke-opacity: 1; stroke-width: 1px;"/><path class="ytick ticks crisp" d="M79,0h-5" transform="translate(0,342.62)" style="stroke: rgb(68, 68, 68); stroke-opacity: 1; stroke-width: 1px;"/><path class="ytick ticks crisp" d="M79,0h-5" transform="translate(0,281.24)" style="stroke: rgb(68, 68, 68); stroke-opacity: 1; stroke-width: 1px;"/><path class="ytick ticks crisp" d="M79,0h-5" transform="translate(0,219.87)" style="stroke: rgb(68, 68, 68); stroke-opacity: 1; stroke-width: 1px;"/><path class="ytick ticks crisp" d="M79,0h-5" transform="translate(0,158.49)" style="stroke: rgb(68, 68, 68); stroke-opacity: 1; stroke-width: 1px;"/><g class="ytick"><text text-anchor="end" x="71.6" y="4.199999999999999" transform="translate(0,404)" style="font-family: 'Open Sans', verdana, arial, sans-serif; font-size: 12px; fill: rgb(36, 36, 36); fill-opacity: 1; white-space: pre; opacity: 1;">0</text></g><g class="ytick"><text text-anchor="end" x="71.6" y="4.199999999999999" style="font-family: 'Open Sans', verdana, arial, sans-serif; font-size: 12px; fill: rgb(36, 36, 36); fill-opacity: 1; white-space: pre; opacity: 1;" transform="translate(0,342.62)">2k</text></g><g class="ytick"><text text-anchor="end" x="71.6" y="4.199999999999999" style="font-family: 'Open Sans', verdana, arial, sans-serif; font-size: 12px; fill: rgb(36, 36, 36); fill-opacity: 1; white-space: pre; opacity: 1;" transform="translate(0,281.24)">4k</text></g><g class="ytick"><text text-anchor="end" x="71.6" y="4.199999999999999" style="font-family: 'Open Sans', verdana, arial, sans-serif; font-size: 12px; fill: rgb(36, 36, 36); fill-opacity: 1; white-space: pre; opacity: 1;" transform="translate(0,219.87)">6k</text></g><g class="ytick"><text text-anchor="end" x="71.6" y="4.199999999999999" style="font-family: 'Open Sans', verdana, arial, sans-serif; font-size: 12px; fill: rgb(36, 36, 36); fill-opacity: 1; white-space: pre; opacity: 1;" transform="translate(0,158.49)">8k</text></g></g><g class="overaxes-above"/></g></g><g class="polarlayer"/><g class="smithlayer"/><g class="ternarylayer"/><g class="geolayer"/><g class="funnelarealayer"/><g class="pielayer"/><g class="iciclelayer"/><g class="treemaplayer"/><g class="sunburstlayer"/><g class="glimages"/><defs id="topdefs-0cb4cc"><g class="clips"/></defs><g class="layer-above"><g class="imagelayer"/><g class="shapelayer"/></g><g class="infolayer"><g class="g-gtitle"/><g class="g-xtitle"><text class="xtitle" x="350" y="484.3" text-anchor="middle" style="font-family: 'Open Sans', verdana, arial, sans-serif; font-size: 14px; fill: rgb(36, 36, 36); opacity: 1; font-weight: normal; white-space: pre;">Time of the day</text></g><g class="g-ytitle"><text class="ytitle" transform="rotate(-90,33.6375,260)" x="33.6375" y="260" text-anchor="middle" style="font-family: 'Open Sans', verdana, arial, sans-serif; font-size: 14px; fill: rgb(36, 36, 36); opacity: 1; font-weight: normal; white-space: pre;">Distance traveled (m)</text></g></g></svg>